<svg xmlns="http://www.w3.org/2000/svg" width="100" height="101" viewBox="0 0 100 101" fill="none">
  <path d="M92.1104 77.9184C86.6696 77.7807 82.4527 78.3331 78.916 79.8517C77.8957 80.2656 76.2632 80.266 76.1272 81.5779C76.6713 82.1302 76.7394 83.0278 77.2155 83.7869C78.0325 85.1674 79.4598 87.0317 80.7522 87.9987C82.1802 89.1031 83.609 90.2074 85.1047 91.174C87.7575 92.8311 90.7504 93.7974 93.3348 95.4545C94.8316 96.4203 96.3269 97.664 97.8233 98.6992C98.5716 99.2508 99.0473 100.149 100 100.494V100.287C99.5235 99.6655 99.3874 98.7683 98.9117 98.0778C98.2323 97.3874 97.5513 96.766 96.8711 96.0755C94.8989 93.3835 92.4505 91.0359 89.7981 89.1031C87.6218 87.584 82.8604 85.5131 81.9766 82.9584C81.9766 82.9584 81.9081 82.8897 81.8405 82.8207C83.3366 82.6826 85.1047 82.1302 86.5335 81.7159C88.8458 81.0941 90.9541 81.2326 93.3348 80.6112C94.4227 80.335 95.511 79.9898 96.599 79.6446V79.0235C95.3754 77.7807 94.4911 76.124 93.1987 74.9502C89.7301 71.9118 85.921 68.9436 81.9766 66.4584C79.8679 65.0775 77.1471 64.1799 74.9028 63.0065C74.0874 62.5918 72.7266 62.3851 72.2508 61.6946C71.026 60.176 70.3458 58.1741 69.462 56.3789C67.4902 52.5813 65.5852 48.3703 63.8847 44.3665C62.6611 41.6737 61.9129 38.9809 60.4164 36.496C53.4111 24.7594 45.7936 17.6485 34.0957 10.6752C31.5789 9.22568 28.5864 8.60427 25.3898 7.84516C23.6901 7.77572 21.9892 7.63802 20.2891 7.56858C19.2008 7.08526 18.1124 5.77378 17.1602 5.15237C13.2842 2.66672 3.28555 -2.71767 0.429089 4.39326C-1.40746 8.88045 3.1499 13.2986 4.71359 15.5775C5.87072 17.1652 7.36639 18.96 8.18263 20.7552C8.65877 21.9281 8.79443 23.1718 9.27057 24.4142C10.3593 27.451 11.3788 30.8347 12.8076 33.6656C13.5559 35.1151 14.3717 36.6337 15.324 37.9456C15.8682 38.7047 16.8201 39.0503 17.0245 40.2928C16.0726 41.6737 16.0042 43.7451 15.4596 45.4708C13.0113 53.2722 13.964 62.9374 17.4322 68.6675C18.5202 70.3928 21.1049 74.1911 24.5736 72.7408C27.6345 71.4983 26.9543 67.5631 27.8378 64.1112C28.0426 63.2819 27.9066 62.7303 28.3143 62.1779V62.3164C29.2666 64.2489 30.2185 66.1135 31.1028 68.0464C33.2114 71.4289 36.8837 74.9502 39.9442 77.2978C41.5771 78.5398 42.8691 80.6803 44.9097 81.4398V81.2322H44.7733C44.3652 80.6108 43.753 80.335 43.2092 79.8513C41.9852 78.6093 40.6245 77.0903 39.6726 75.7093C36.8165 71.8428 34.2993 67.5627 32.0551 63.1442C30.9671 61.0046 30.0144 58.657 29.1306 56.517C28.7221 55.6876 28.7221 54.4456 28.0422 54.0317C27.0219 55.5503 25.5259 56.8622 24.7777 58.726C23.486 61.6946 23.3496 65.3536 22.8735 69.1504C22.6014 69.2202 22.737 69.1504 22.601 69.2893C20.4251 68.7361 19.6769 66.4584 18.8603 64.5251C16.8197 59.6236 16.4796 51.7532 18.2485 46.0922C18.7246 44.6423 20.7652 40.086 19.949 38.7051C19.5409 37.3932 18.1801 36.6337 17.4322 35.5984C16.5484 34.2866 15.5957 32.6303 14.9839 31.1799C13.3514 27.3137 12.5352 23.0333 10.767 19.1671C9.95077 17.3719 8.52312 15.5085 7.36639 13.8514C6.07439 11.9875 4.64596 10.6752 3.62566 8.46618C3.28595 7.70707 2.80941 6.46424 3.35357 5.63569C3.48962 5.08332 3.76131 4.87658 4.30586 4.73849C5.19013 3.97859 7.70688 4.94523 8.59036 5.35951C11.1071 6.3944 13.2154 7.36184 15.324 8.81141C16.2759 9.50186 17.2962 10.8137 18.5202 11.159H19.9486C22.1252 11.6419 24.5732 11.2971 26.6138 11.9181C30.2189 13.0915 33.4831 14.8176 36.408 16.6818C45.3179 22.4119 52.6625 30.5585 57.628 40.2928C58.4442 41.88 58.7839 43.3308 59.5322 44.9871C60.961 48.3703 62.7291 51.8222 64.1568 55.136C65.5852 58.3804 66.9452 61.6946 68.9858 64.3874C70.0061 65.8366 74.0866 66.5965 75.9231 67.356C77.2835 67.977 79.3922 68.5298 80.6161 69.2889C82.9284 70.738 85.2407 72.3959 87.4174 73.9832C88.5057 74.8117 91.906 76.5379 92.1104 77.9184Z" fill="#00546B"/>
  <path d="M22.7367 17.9239C21.5807 17.9239 20.7649 18.0628 19.9486 18.2695V18.4076H20.0846C20.6292 19.5123 21.5807 20.2718 22.2605 21.2381C22.8051 22.3424 23.2808 23.4476 23.8254 24.5523C23.893 24.4829 23.961 24.4142 23.961 24.4142C24.9137 23.7233 25.3894 22.619 25.3894 20.9619C24.9813 20.479 24.9133 19.9957 24.5732 19.5123C24.1655 18.8215 23.2808 18.4767 22.7367 17.9239Z" fill="#00546B"/>
</svg>